<?xml version="1.0" encoding="utf-8"?>
<!-- Generator: Adobe Illustrator 19.0.1, SVG Export Plug-In . SVG Version: 6.00 Build 0)  -->
<svg version="1.1" id="US_UK_Download_on_the" xmlns="http://www.w3.org/2000/svg" xmlns:xlink="http://www.w3.org/1999/xlink"
	 x="0px" y="0px" viewBox="-682 381 135 40" enable-background="new -682 381 135 40" xml:space="preserve">
<g>
	<path fill="#A6A6A6" d="M-551.8,421h-125.5c-2.6,0-4.7-2.1-4.7-4.7v-30.5c0-2.6,2.1-4.7,4.7-4.7h125.5c2.6,0,4.8,2.1,4.8,4.7v30.5
		C-547,418.9-549.2,421-551.8,421L-551.8,421z"/>
	<path d="M-548,416.3c0,2.1-1.7,3.8-3.8,3.8h-125.5c-2.1,0-3.8-1.7-3.8-3.8v-30.5c0-2.1,1.7-3.8,3.8-3.8h125.5
		c2.1,0,3.8,1.7,3.8,3.8L-548,416.3L-548,416.3z"/>
	<g>
		<g>
			<path fill="#FFFFFF" d="M-651.9,400.8c0-3.2,2.6-4.8,2.8-4.9c-1.5-2.2-3.9-2.5-4.7-2.5c-2-0.2-3.9,1.2-4.9,1.2
				c-1,0-2.6-1.2-4.2-1.1c-2.1,0-4.1,1.3-5.2,3.2c-2.3,3.9-0.6,9.7,1.6,12.9c1.1,1.6,2.4,3.3,4,3.2c1.6-0.1,2.2-1,4.2-1
				c1.9,0,2.5,1,4.2,1c1.7,0,2.8-1.6,3.9-3.1c1.3-1.8,1.8-3.5,1.8-3.6C-648.5,405.9-651.8,404.6-651.9,400.8z"/>
			<path fill="#FFFFFF" d="M-655.1,391.3c0.9-1.1,1.5-2.6,1.3-4.1c-1.3,0.1-2.8,0.9-3.8,1.9c-0.8,0.9-1.5,2.5-1.3,3.9
				C-657.4,393.2-656,392.4-655.1,391.3z"/>
		</g>
	</g>
	<g>
		<path fill="#FFFFFF" d="M-628.4,412.5h-2.3l-1.2-3.9h-4.3l-1.2,3.9h-2.2l4.3-13.3h2.6L-628.4,412.5z M-632.2,407l-1.1-3.5
			c-0.1-0.4-0.3-1.2-0.7-2.5h0c-0.1,0.6-0.3,1.4-0.6,2.5l-1.1,3.5H-632.2z"/>
		<path fill="#FFFFFF" d="M-617.3,407.6c0,1.6-0.4,2.9-1.3,3.9c-0.8,0.8-1.8,1.3-2.9,1.3c-1.3,0-2.2-0.5-2.7-1.4h0v5.1h-2.1v-10.3
			c0-1,0-2.1-0.1-3.2h1.9l0.1,1.5h0c0.7-1.1,1.8-1.7,3.2-1.7c1.1,0,2.1,0.4,2.8,1.3C-617.7,404.9-617.3,406.1-617.3,407.6z
			 M-619.5,407.7c0-0.9-0.2-1.7-0.6-2.3c-0.5-0.6-1.1-0.9-1.9-0.9c-0.5,0-1,0.2-1.4,0.5c-0.4,0.4-0.7,0.8-0.8,1.4
			c-0.1,0.3-0.1,0.5-0.1,0.6v1.6c0,0.7,0.2,1.3,0.6,1.8c0.4,0.5,1,0.7,1.7,0.7c0.8,0,1.4-0.3,1.9-0.9
			C-619.7,409.5-619.5,408.7-619.5,407.7z"/>
		<path fill="#FFFFFF" d="M-606.3,407.6c0,1.6-0.4,2.9-1.3,3.9c-0.8,0.8-1.8,1.3-2.9,1.3c-1.3,0-2.2-0.5-2.7-1.4h0v5.1h-2.1v-10.3
			c0-1,0-2.1-0.1-3.2h1.9l0.1,1.5h0c0.7-1.1,1.8-1.7,3.2-1.7c1.1,0,2.1,0.4,2.8,1.3C-606.7,404.9-606.3,406.1-606.3,407.6z
			 M-608.5,407.7c0-0.9-0.2-1.7-0.6-2.3c-0.5-0.6-1.1-0.9-1.9-0.9c-0.5,0-1,0.2-1.4,0.5c-0.4,0.4-0.7,0.8-0.8,1.4
			c-0.1,0.3-0.1,0.5-0.1,0.6v1.6c0,0.7,0.2,1.3,0.6,1.8c0.4,0.5,1,0.7,1.7,0.7c0.8,0,1.4-0.3,1.9-0.9
			C-608.7,409.5-608.5,408.7-608.5,407.7z"/>
		<path fill="#FFFFFF" d="M-594,408.8c0,1.1-0.4,2.1-1.2,2.8c-0.9,0.8-2.1,1.2-3.6,1.2c-1.4,0-2.6-0.3-3.4-0.8l0.5-1.8
			c0.9,0.6,2,0.9,3.1,0.9c0.8,0,1.4-0.2,1.9-0.5c0.4-0.4,0.7-0.8,0.7-1.5c0-0.5-0.2-1-0.6-1.4c-0.4-0.4-1-0.7-1.8-1
			c-2.3-0.9-3.5-2.1-3.5-3.8c0-1.1,0.4-2,1.2-2.7c0.8-0.7,1.9-1,3.3-1c1.2,0,2.2,0.2,3,0.6l-0.5,1.7c-0.8-0.4-1.6-0.6-2.5-0.6
			c-0.8,0-1.3,0.2-1.8,0.6c-0.4,0.3-0.5,0.7-0.5,1.2c0,0.5,0.2,1,0.6,1.3c0.4,0.3,1,0.7,1.9,1c1.1,0.5,2,1,2.5,1.6
			C-594.2,407.1-594,407.9-594,408.8z"/>
		<path fill="#FFFFFF" d="M-586.9,404.5h-2.4v4.7c0,1.2,0.4,1.8,1.2,1.8c0.4,0,0.7,0,0.9-0.1l0.1,1.6c-0.4,0.2-1,0.2-1.7,0.2
			c-0.8,0-1.5-0.3-2-0.8c-0.5-0.5-0.7-1.4-0.7-2.6v-4.8h-1.4v-1.6h1.4v-1.8l2.1-0.6v2.4h2.3C-586.9,402.9-586.9,404.5-586.9,404.5z"
			/>
		<path fill="#FFFFFF" d="M-576.3,407.6c0,1.5-0.4,2.7-1.3,3.6c-0.9,1-2.1,1.5-3.5,1.5c-1.4,0-2.5-0.5-3.4-1.4
			c-0.8-0.9-1.3-2.1-1.3-3.5c0-1.5,0.4-2.7,1.3-3.7c0.9-0.9,2-1.4,3.5-1.4c1.4,0,2.5,0.5,3.4,1.4
			C-576.7,405-576.3,406.2-576.3,407.6z M-578.5,407.7c0-0.9-0.2-1.6-0.6-2.3c-0.4-0.8-1.1-1.1-1.9-1.1c-0.9,0-1.5,0.4-2,1.1
			c-0.4,0.6-0.6,1.4-0.6,2.3c0,0.9,0.2,1.6,0.6,2.3c0.5,0.8,1.1,1.1,1.9,1.1c0.8,0,1.5-0.4,1.9-1.2
			C-578.7,409.3-578.5,408.6-578.5,407.7z"/>
		<path fill="#FFFFFF" d="M-569.4,404.8c-0.2,0-0.4-0.1-0.7-0.1c-0.8,0-1.3,0.3-1.7,0.9c-0.4,0.5-0.5,1.1-0.5,1.9v5h-2.1l0-6.6
			c0-1.1,0-2.1-0.1-3h1.9l0.1,1.8h0.1c0.2-0.6,0.6-1.1,1.1-1.5c0.5-0.3,1-0.5,1.5-0.5c0.2,0,0.4,0,0.5,0
			C-569.4,402.8-569.4,404.8-569.4,404.8z"/>
		<path fill="#FFFFFF" d="M-559.8,407.3c0,0.4,0,0.7-0.1,1h-6.4c0,0.9,0.3,1.7,0.9,2.2c0.5,0.4,1.2,0.7,2.1,0.7
			c0.9,0,1.8-0.2,2.6-0.5l0.3,1.5c-0.9,0.4-2,0.6-3.2,0.6c-1.5,0-2.7-0.4-3.5-1.3c-0.8-0.9-1.3-2-1.3-3.5c0-1.4,0.4-2.7,1.2-3.6
			c0.8-1,1.9-1.5,3.4-1.5c1.4,0,2.4,0.5,3.1,1.5C-560.1,405-559.8,406.1-559.8,407.3z M-561.9,406.7c0-0.6-0.1-1.2-0.4-1.6
			c-0.4-0.6-0.9-0.9-1.7-0.9c-0.7,0-1.3,0.3-1.7,0.9c-0.4,0.5-0.6,1-0.6,1.7L-561.9,406.7L-561.9,406.7z"/>
	</g>
	<g>
		<g>
			<path fill="#FFFFFF" d="M-633,391c0,1.2-0.4,2.1-1.1,2.7c-0.7,0.5-1.6,0.8-2.8,0.8c-0.6,0-1.1,0-1.5-0.1V388
				c0.6-0.1,1.2-0.1,1.8-0.1c1.1,0,2,0.2,2.6,0.7C-633.3,389.2-633,390-633,391z M-634.1,391c0-0.8-0.2-1.3-0.6-1.8
				c-0.4-0.4-1-0.6-1.8-0.6c-0.3,0-0.6,0-0.8,0.1v4.9c0.1,0,0.4,0,0.7,0c0.8,0,1.4-0.2,1.9-0.7C-634.3,392.5-634.1,391.9-634.1,391z
				"/>
			<path fill="#FFFFFF" d="M-627.1,392c0,0.7-0.2,1.3-0.6,1.8c-0.4,0.5-1,0.7-1.7,0.7c-0.7,0-1.2-0.2-1.7-0.7
				c-0.4-0.5-0.6-1-0.6-1.7c0-0.7,0.2-1.3,0.6-1.8c0.4-0.5,1-0.7,1.7-0.7c0.7,0,1.2,0.2,1.7,0.7C-627.3,390.8-627.1,391.3-627.1,392
				z M-628.2,392.1c0-0.4-0.1-0.8-0.3-1.1c-0.2-0.4-0.5-0.6-0.9-0.6c-0.4,0-0.7,0.2-1,0.6c-0.2,0.3-0.3,0.7-0.3,1.1
				c0,0.4,0.1,0.8,0.3,1.1c0.2,0.4,0.5,0.6,1,0.6c0.4,0,0.7-0.2,0.9-0.6C-628.3,392.9-628.2,392.5-628.2,392.1z"/>
			<path fill="#FFFFFF" d="M-619.2,389.7l-1.5,4.7h-1l-0.6-2c-0.2-0.5-0.3-1-0.4-1.5h0c-0.1,0.5-0.2,1-0.4,1.5l-0.6,2h-1l-1.4-4.7
				h1.1l0.5,2.2c0.1,0.5,0.2,1,0.3,1.5h0c0.1-0.4,0.2-0.9,0.4-1.5l0.7-2.2h0.9l0.6,2.2c0.2,0.5,0.3,1.1,0.4,1.6h0
				c0.1-0.5,0.2-1,0.3-1.6l0.6-2.2L-619.2,389.7L-619.2,389.7z"/>
			<path fill="#FFFFFF" d="M-613.8,394.4h-1v-2.7c0-0.8-0.3-1.2-1-1.2c-0.3,0-0.6,0.1-0.8,0.3c-0.2,0.2-0.3,0.5-0.3,0.8v2.8h-1v-3.4
				c0-0.4,0-0.9,0-1.3h0.9l0,0.7h0c0.1-0.2,0.3-0.4,0.5-0.6c0.3-0.2,0.6-0.3,0.9-0.3c0.4,0,0.8,0.1,1.1,0.4c0.4,0.3,0.5,0.9,0.5,1.6
				V394.4z"/>
			<path fill="#FFFFFF" d="M-610.9,394.4h-1v-6.9h1V394.4z"/>
			<path fill="#FFFFFF" d="M-604.7,392c0,0.7-0.2,1.3-0.6,1.8c-0.4,0.5-1,0.7-1.7,0.7c-0.7,0-1.2-0.2-1.7-0.7
				c-0.4-0.5-0.6-1-0.6-1.7c0-0.7,0.2-1.3,0.6-1.8c0.4-0.5,1-0.7,1.7-0.7c0.7,0,1.2,0.2,1.7,0.7C-604.9,390.8-604.7,391.3-604.7,392
				z M-605.8,392.1c0-0.4-0.1-0.8-0.3-1.1c-0.2-0.4-0.5-0.6-0.9-0.6c-0.4,0-0.7,0.2-1,0.6c-0.2,0.3-0.3,0.7-0.3,1.1
				c0,0.4,0.1,0.8,0.3,1.1c0.2,0.4,0.5,0.6,1,0.6c0.4,0,0.7-0.2,0.9-0.6C-605.9,392.9-605.8,392.5-605.8,392.1z"/>
			<path fill="#FFFFFF" d="M-599.7,394.4h-0.9l-0.1-0.5h0c-0.3,0.4-0.8,0.6-1.4,0.6c-0.4,0-0.8-0.1-1.1-0.4c-0.2-0.3-0.4-0.6-0.4-1
				c0-0.6,0.2-1,0.7-1.3c0.5-0.3,1.2-0.5,2-0.4v-0.1c0-0.6-0.3-0.9-1-0.9c-0.5,0-0.9,0.1-1.2,0.3l-0.2-0.7c0.4-0.3,1-0.4,1.6-0.4
				c1.2,0,1.9,0.7,1.9,2v1.7C-599.7,393.8-599.7,394.2-599.7,394.4z M-600.8,392.8v-0.7c-1.2,0-1.7,0.3-1.7,1c0,0.2,0.1,0.4,0.2,0.6
				c0.1,0.1,0.3,0.2,0.5,0.2c0.2,0,0.4-0.1,0.6-0.2c0.2-0.1,0.3-0.3,0.4-0.6C-600.8,392.9-600.8,392.9-600.8,392.8z"/>
			<path fill="#FFFFFF" d="M-593.7,394.4h-0.9l0-0.8h0c-0.3,0.6-0.8,0.9-1.5,0.9c-0.6,0-1-0.2-1.4-0.7c-0.4-0.4-0.6-1-0.6-1.7
				c0-0.8,0.2-1.4,0.6-1.9c0.4-0.4,0.9-0.7,1.5-0.7c0.6,0,1.1,0.2,1.3,0.6h0v-2.7h1v5.6C-593.8,393.6-593.7,394-593.7,394.4z
				 M-594.8,392.4v-0.8c0-0.1,0-0.2,0-0.3c-0.1-0.3-0.2-0.5-0.4-0.6c-0.2-0.2-0.4-0.3-0.7-0.3c-0.4,0-0.7,0.2-0.9,0.5
				c-0.2,0.3-0.3,0.7-0.3,1.2c0,0.5,0.1,0.8,0.3,1.1c0.2,0.3,0.5,0.5,0.9,0.5c0.3,0,0.6-0.1,0.8-0.4
				C-594.9,393.1-594.8,392.8-594.8,392.4z"/>
			<path fill="#FFFFFF" d="M-584.8,392c0,0.7-0.2,1.3-0.6,1.8c-0.4,0.5-1,0.7-1.7,0.7c-0.7,0-1.2-0.2-1.7-0.7
				c-0.4-0.5-0.6-1-0.6-1.7c0-0.7,0.2-1.3,0.6-1.8c0.4-0.5,1-0.7,1.7-0.7c0.7,0,1.2,0.2,1.7,0.7C-585,390.8-584.8,391.3-584.8,392z
				 M-585.8,392.1c0-0.4-0.1-0.8-0.3-1.1c-0.2-0.4-0.5-0.6-0.9-0.6c-0.4,0-0.7,0.2-1,0.6c-0.2,0.3-0.3,0.7-0.3,1.1
				c0,0.4,0.1,0.8,0.3,1.1c0.2,0.4,0.5,0.6,1,0.6c0.4,0,0.7-0.2,0.9-0.6C-585.9,392.9-585.8,392.5-585.8,392.1z"/>
			<path fill="#FFFFFF" d="M-579.1,394.4h-1v-2.7c0-0.8-0.3-1.2-1-1.2c-0.3,0-0.6,0.1-0.8,0.3c-0.2,0.2-0.3,0.5-0.3,0.8v2.8h-1v-3.4
				c0-0.4,0-0.9,0-1.3h0.9l0,0.7h0c0.1-0.2,0.3-0.4,0.5-0.6c0.3-0.2,0.6-0.3,1-0.3c0.4,0,0.8,0.1,1.1,0.4c0.4,0.3,0.5,0.9,0.5,1.6
				V394.4z"/>
			<path fill="#FFFFFF" d="M-572.1,390.5h-1.2v2.3c0,0.6,0.2,0.9,0.6,0.9c0.2,0,0.3,0,0.5,0l0,0.8c-0.2,0.1-0.5,0.1-0.8,0.1
				c-0.4,0-0.7-0.1-1-0.4c-0.2-0.3-0.3-0.7-0.3-1.3v-2.4h-0.7v-0.8h0.7v-0.9l1-0.3v1.2h1.2L-572.1,390.5L-572.1,390.5z"/>
			<path fill="#FFFFFF" d="M-566.5,394.4h-1v-2.7c0-0.8-0.3-1.3-0.9-1.3c-0.5,0-0.8,0.2-1,0.7c0,0.1,0,0.2,0,0.4v2.8h-1v-6.9h1v2.8
				h0c0.3-0.5,0.8-0.8,1.4-0.8c0.4,0,0.8,0.1,1.1,0.4c0.4,0.4,0.5,0.9,0.5,1.6C-566.5,391.6-566.5,394.4-566.5,394.4z"/>
			<path fill="#FFFFFF" d="M-560.8,391.9c0,0.2,0,0.3,0,0.5h-3.1c0,0.5,0.2,0.8,0.5,1.1c0.3,0.2,0.6,0.3,1,0.3
				c0.5,0,0.9-0.1,1.3-0.2l0.2,0.7c-0.4,0.2-1,0.3-1.6,0.3c-0.7,0-1.3-0.2-1.7-0.6c-0.4-0.4-0.6-1-0.6-1.7c0-0.7,0.2-1.3,0.6-1.8
				c0.4-0.5,1-0.8,1.6-0.8c0.7,0,1.2,0.3,1.5,0.8C-560.9,390.8-560.8,391.3-560.8,391.9z M-561.8,391.6c0-0.3-0.1-0.6-0.2-0.8
				c-0.2-0.3-0.5-0.4-0.8-0.4c-0.3,0-0.6,0.1-0.8,0.4c-0.2,0.2-0.3,0.5-0.3,0.8C-564,391.6-561.8,391.6-561.8,391.6z"/>
		</g>
	</g>
</g>
</svg>
