<?xml version="1.0" encoding="utf-8"?>
<!-- Generator: Adobe Illustrator 19.0.1, SVG Export Plug-In . SVG Version: 6.00 Build 0)  -->
<svg version="1.1" id="Capa_1" xmlns="http://www.w3.org/2000/svg" xmlns:xlink="http://www.w3.org/1999/xlink" x="0px" y="0px"
	 viewBox="5 -5 510 510" enable-background="new 5 -5 510 510" xml:space="preserve">
<g>
	<g id="do-not-disturb">
		<path d="M260-5C119.8-5,5,109.8,5,250s114.8,255,255,255s255-114.8,255-255S400.2-5,260-5z M56,250c0-112.2,91.8-204,204-204
			c45.9,0,89.2,15.3,125,43.3L99.4,375C71.3,339.2,56,295.9,56,250z M260,454c-45.9,0-89.2-15.3-124.9-43.4l285.6-285.6
			C448.7,160.8,464,204.1,464,250C464,362.2,372.2,454,260,454z"/>
	</g>
</g>
</svg>
