<?xml version="1.0" encoding="utf-8"?>
<!-- Generator: Adobe Illustrator 19.0.1, SVG Export Plug-In . SVG Version: 6.00 Build 0)  -->
<svg version="1.1" id="Layer_1" xmlns="http://www.w3.org/2000/svg" xmlns:xlink="http://www.w3.org/1999/xlink" x="0px" y="0px"
	 viewBox="0 0 72.3 73.7" enable-background="new 0 0 72.3 73.7" xml:space="preserve">
<text transform="matrix(1 0 0 1 -7.2555 78.7121)" display="none" fill="#875EA7" font-family="'FuturaPT-Book'" font-size="124.1196px" letter-spacing="9">r  vie</text>
<g>
	<g>
		<g>
			<polygon points="51,18 51.1,18.5 50.3,18.7 50.2,19.7 51.1,19.7 52.3,19.6 52.9,18.9 52.3,18.6 51.9,18.2 51.4,17.3 51.1,16.1 
				50.1,16.3 49.9,16.7 49.9,17.2 50.3,17.6 			"/>
			<polygon points="50.2,18.4 50.2,17.7 49.6,17.5 48.8,17.7 48.2,18.7 48.2,19.3 48.9,19.3 			"/>
			<path d="M33.1,21.2L33,21.7h-0.9v0.5h0.2c0,0,0,0.1,0,0.2l0.5,0l0.3-0.2l0.1-0.4l0.4,0l0.2-0.4l-0.4-0.1L33.1,21.2z"/>
			<polygon points="30.9,22.1 30.8,22.5 31.5,22.4 31.5,22 31.2,21.7 			"/>
			<path d="M69.2,36.3c0-1-0.1-2-0.2-2.9c-0.3-3.2-1.1-6.3-2.2-9.1c-0.1-0.2-0.2-0.4-0.3-0.6c-1.5-3.6-3.7-6.9-6.3-9.7
				c-0.2-0.2-0.3-0.4-0.5-0.5c-0.5-0.5-1-1-1.5-1.5c-6-5.4-13.9-8.7-22.6-8.7C26.9,3.1,19,6.5,13,12c-1.4,1.3-2.7,2.7-3.8,4.2
				c-4.4,5.7-7,12.8-7,20.5c0,18.5,15,33.5,33.5,33.5c13,0,24.3-7.4,29.9-18.3c1.2-2.3,2.1-4.8,2.7-7.4c0.2-0.7,0.3-1.3,0.4-2
				c0.3-1.9,0.5-3.9,0.5-5.9C69.2,36.5,69.2,36.4,69.2,36.3z M62.9,22.9l0.2-0.2c0.3,0.5,0.5,1,0.7,1.5l-0.3,0l-0.6,0.1V22.9z
				 M58.1,17l0-1.5c0.5,0.6,1,1.1,1.5,1.7L59,18.1l-2.1,0l-0.1-0.4L58.1,17z M17.6,13.3L17.6,13.3l0.7-0.1l0.1-0.2h1.1v0.5l-0.3,0.4
				h-1.5L17.6,13.3L17.6,13.3z M18.7,14.8c0,0,0.7-0.1,0.7-0.1s0,0.7,0,0.7l-1.5,0.1l-0.3-0.3L18.7,14.8z M65,28.1h-2.5L61.1,27
				l-1.6,0.2v1H59l-0.5-0.4L55.8,27v-1.8l-3.5,0.3l-1.1,0.6h-1.4L49.2,26L47.5,27v1.7l-3.4,2.5l0.3,1h0.7l-0.2,1l-0.5,0.2l0,2.6
				l2.9,3.3h1.3l0.1-0.2H51l0.7-0.6H53l0.7,0.7l1.9,0.2L55.4,42l2.2,3.8L56.4,48l0.1,1l0.9,0.9v2.5l1.2,1.6v2h1
				c-5.6,6.9-14.2,11.4-23.9,11.4c-17,0-30.8-13.8-30.8-30.8c0-4.3,0.9-8.3,2.5-12v-1l1.1-1.3c0.4-0.7,0.8-1.4,1.2-2.1l0,0.6
				l-1.3,1.6c-0.4,0.7-0.8,1.5-1.1,2.3v1.8l1.3,0.6v2.4l1.2,2.1l1,0.2l0.1-0.7l-1.2-1.8l-0.2-1.8h0.7l0.3,1.8l1.7,2.5l-0.4,0.8
				l1.1,1.7l2.7,0.7v-0.4l1.1,0.2l-0.1,0.8l0.8,0.2l1.3,0.4l1.8,2.1l2.4,0.2l0.2,1.9l-1.6,1.1l-0.1,1.7l-0.2,1l2.3,2.9l0.2,1
				c0,0,0.8,0.2,0.9,0.2c0.1,0,1.9,1.4,1.9,1.4v5.3l0.6,0.2l-0.4,2.4l1.1,1.4L27.7,61l1.4,2.5l1.8,1.6l1.8,0l0.2-0.6l-1.3-1.1
				l0.1-0.6l0.2-0.7l0.1-0.7l-0.9,0l-0.5-0.6l0.8-0.7l0.1-0.5l-0.8-0.2l0-0.5l1.2-0.2l1.8-0.9l0.6-1.1l1.9-2.5l-0.4-1.9l0.6-1
				l1.8,0.1l1.2-0.9l0.4-3.7L41,45l0.2-1.1L40,43.5l-0.8-1.3l-2.7,0l-2.1-0.8l-0.1-1.5l-0.7-1.3l-1.9,0l-1.1-1.8l-1-0.5l-0.1,0.5
				L27.6,37L27,36l-1.9-0.4l-1.6,1.8L21.1,37l-0.2-2.8L19.1,34l0.7-1.4l-0.2-0.8l-2.4,1.6l-1.5-0.2l-0.5-1.2l0.3-1.2l0.8-1.5l1.9-1
				l3.6,0l0,1.1l1.3,0.6l-0.1-1.9l0.9-0.9l1.9-1.2l0.1-0.9l1.9-2l2-1.1l-0.2-0.1l1.4-1.3l0.5,0.1l0.2,0.3l0.5-0.6l0.1-0.1l-0.6-0.1
				l-0.6-0.2v-0.6l0.3-0.2h0.7l0.3,0.1l0.3,0.5l0.3,0v0l0.1,0l0.9-0.1l0.1-0.5l0.5,0.1V20l-0.5,0.3h0l0.1,0.5l1.7,0.5c0,0,0,0,0,0
				l0.4,0l0-0.7l-1.4-0.6l-0.1-0.4l1.1-0.4l0-1.1l-1.2-0.7l-0.1-1.8l-1.6,0.8h-0.6l0.2-1.4l-2.2-0.5L30,15.3v2.1l-1.6,0.5l-0.7,1.4
				L27,19.4v-1.7l-1.5-0.2l-0.8-0.5l-0.3-1.1l2.7-1.6l1.3-0.4l0.1,0.9l0.7,0l0.1-0.5l0.8-0.1l0-0.2l-0.3-0.1l-0.1-0.5l1-0.1l0.6-0.6
				l0,0l0,0l0.2-0.2l2-0.3l0.9,0.8l-2.3,1.2l3,0.7l0.4-1h1.3l0.5-0.9l-0.9-0.2v-1.1l-2.9-1.3l-2,0.2l-1.1,0.6l0.1,1.4l-1.2-0.2
				l-0.2-0.8l1.1-1l-2-0.1l-0.6,0.2l-0.3,0.7l0.8,0.1l-0.2,0.8l-1.3,0.1l-0.2,0.5l-1.9,0.1c0,0-0.1-1.1-0.1-1.1s1.5,0,1.5,0l1.1-1.1
				l-0.6-0.3l-0.8,0.8l-1.4-0.1L23.4,10h-1.7l-1.8,1.4h1.7l0.2,0.5l-0.4,0.4l1.8,0.1l0.3,0.7l-2.1-0.1l-0.1-0.5l-1.3-0.3l-0.7-0.4
				l-1.6,0C22.7,8,28.9,5.8,35.7,5.8c7.8,0,14.9,2.9,20.3,7.7l-0.4,0.7l-1.4,0.6l-0.6,0.6l0.1,0.8l0.7,0.1l0.4,1.1l1.3-0.5l0.2,1.5
				H56l-1-0.2l-1.2,0.2l-1.1,1.6l-1.6,0.2l-0.2,1.4l0.7,0.2l-0.2,0.9l-1.6-0.3l-1.4,0.3L48,23.4l0.3,1.7l0.9,0.4l1.4,0l1-0.1
				l0.3-0.8l1.5-2l1,0.2l1-0.9l0.2,0.7l2.4,1.6l-0.3,0.4l-1.1-0.1l0.4,0.6l0.7,0.1l0.8-0.3l0-0.9l0.3-0.2l-0.3-0.3l-1.6-0.9
				l-0.4-1.2h1.3l0.4,0.4l1.1,1l0,1.2l1.2,1.3l0.4-1.7l0.8-0.4l0.2,1.4l0.8,0.9l1.6,0c0.3,0.8,0.6,1.6,0.8,2.4L65,28.1z M20.5,18.3
				l0.8-0.4l0.7,0.2l-0.3,1L21,19.3L20.5,18.3z M24.7,20.6v0.6h-1.8l-0.7-0.2l0.2-0.4l0.9-0.4h1.2v0.4H24.7z M25.6,21.5v0.6
				l-0.5,0.3l-0.6,0.1c0,0,0-0.9,0-1H25.6z M25.1,21.3v-0.7l0.6,0.6L25.1,21.3z M25.3,22.7v0.6l-0.4,0.4h-1l0.2-0.7l0.5,0l0.1-0.2
				L25.3,22.7z M22.9,21.5h1l-1.3,1.8L22.1,23l0.1-0.8L22.9,21.5z M27.1,22.5v0.6h-1l-0.3-0.4v-0.6h0.1L27.1,22.5z M26.2,21.7
				l0.3-0.3l0.5,0.3L26.5,22L26.2,21.7z M65.5,29.7l0.1-0.1c0,0.2,0.1,0.3,0.1,0.5L65.5,29.7z"/>
			<path d="M7.4,23.6v1c0.3-0.8,0.7-1.5,1.1-2.3L7.4,23.6z"/>
		</g>
	</g>
</g>
</svg>
