<?xml version="1.0" encoding="utf-8"?>
<!-- Generator: Adobe Illustrator 19.0.1, SVG Export Plug-In . SVG Version: 6.00 Build 0)  -->
<svg version="1.1" id="Layer_1" xmlns="http://www.w3.org/2000/svg" xmlns:xlink="http://www.w3.org/1999/xlink" x="0px" y="0px"
	 viewBox="0 0 522 180" enable-background="new 0 0 522 180" xml:space="preserve">
<g>
	<path d="M516.7,151.8c0,12.5-10.1,22.6-22.6,22.6H27.9c-12.5,0-22.6-10.1-22.6-22.6V29.7c0-12.5,10.1-22.6,22.6-22.6h466.3
		c12.5,0,22.6,10.1,22.6,22.6V151.8z"/>
	<g id="PLAY_1_">
		<defs>
			<path id="SVGID_1_" d="M116.1,80.7L93,67.4c0,0-42-24.3-44.5-25.7c-2.5-1.4-4.9-0.6-4.9,2.4c0,5,0,51.8,0,51.8s0,50.6,0,52.9
				c0,2.2,1.8,3.2,3.9,2c2.1-1.2,45.5-26.3,45.5-26.3l23.1-13.3c0,0,19.6-11.3,22.2-12.8c2.6-1.5,2.4-3.6,0.2-4.7
				C136.2,92.4,116.1,80.7,116.1,80.7z"/>
		</defs>
		<clipPath id="SVGID_2_">
			<use xlink:href="#SVGID_1_"  overflow="visible"/>
		</clipPath>
		<linearGradient id="SVGID_3_" gradientUnits="userSpaceOnUse" x1="72.1919" y1="39.2852" x2="72.1919" y2="152.5879">
			<stop  offset="0" style="stop-color:#257CB0"/>
			<stop  offset="0.2863" style="stop-color:#4A93B5"/>
			<stop  offset="0.767" style="stop-color:#78BCBB"/>
			<stop  offset="1" style="stop-color:#89CFBD"/>
		</linearGradient>
		<polygon clip-path="url(#SVGID_2_)" fill="url(#SVGID_3_)" points="43.6,39.3 43.6,95.9 43.6,152.6 100.8,95.9 		"/>
		<linearGradient id="SVGID_4_" gradientUnits="userSpaceOnUse" x1="43.625" y1="67.4053" x2="116.1045" y2="67.4053">
			<stop  offset="0" style="stop-color:#52C1AD"/>
			<stop  offset="1" style="stop-color:#DEE89A"/>
		</linearGradient>
		<polygon clip-path="url(#SVGID_2_)" fill="url(#SVGID_4_)" points="116.1,80.7 93,67.4 43.6,38.9 43.6,39.3 100.8,95.9 		"/>
		<linearGradient id="SVGID_5_" gradientUnits="userSpaceOnUse" x1="79.8643" y1="95.9375" x2="79.8643" y2="153">
			<stop  offset="0" style="stop-color:#EC413D"/>
			<stop  offset="0.1668" style="stop-color:#DA4452"/>
			<stop  offset="0.5748" style="stop-color:#B0487A"/>
			<stop  offset="0.8619" style="stop-color:#954A92"/>
			<stop  offset="1" style="stop-color:#8A4A9D"/>
		</linearGradient>
		<polygon clip-path="url(#SVGID_2_)" fill="url(#SVGID_5_)" points="43.6,152.6 43.6,153 93,124.5 116.1,111.2 100.8,95.9 		"/>
		<linearGradient id="SVGID_6_" gradientUnits="userSpaceOnUse" x1="121.6096" y1="80.7207" x2="121.6096" y2="111.1523">
			<stop  offset="0" style="stop-color:#F58879"/>
			<stop  offset="0.1194" style="stop-color:#F69079"/>
			<stop  offset="0.7128" style="stop-color:#FCB877"/>
			<stop  offset="1" style="stop-color:#FEC874"/>
		</linearGradient>
		<polygon clip-path="url(#SVGID_2_)" fill="url(#SVGID_6_)" points="116.1,80.7 100.8,95.9 116.1,111.2 142.5,95.9 		"/>
	</g>
	<g>
		<path fill="#F9F9F9" d="M403.3,118.1c-2.1,0-4.1-0.4-5.9-1.2c-1.8-0.8-3.3-2-4.5-3.7h-0.4c0.2,1.9,0.4,3.7,0.4,5.5v13.6h-5V84.5
			h4.1l0.7,4.5h0.2c1.3-1.8,2.8-3.1,4.5-3.9c1.7-0.8,3.7-1.2,5.9-1.2c4.4,0,7.7,1.5,10.1,4.5c2.4,3,3.6,7.2,3.6,12.6
			c0,5.4-1.2,9.6-3.6,12.6C411,116.6,407.6,118.1,403.3,118.1z M402.6,88.2c-3.4,0-5.8,0.9-7.3,2.8c-1.5,1.9-2.3,4.8-2.3,8.9v1.1
			c0,4.6,0.8,7.9,2.3,9.9c1.5,2,4,3,7.4,3c2.8,0,5.1-1.2,6.7-3.5c1.6-2.3,2.4-5.5,2.4-9.5c0-4.1-0.8-7.3-2.4-9.5
			C407.8,89.3,405.5,88.2,402.6,88.2z"/>
		<path fill="#F9F9F9" d="M428.6,117.5h-5V70.7h5V117.5z"/>
		<path fill="#F9F9F9" d="M457.2,117.5l-1-4.7H456c-1.6,2.1-3.3,3.5-4.9,4.2c-1.6,0.7-3.7,1.1-6.1,1.1c-3.3,0-5.8-0.8-7.7-2.5
			c-1.9-1.7-2.8-4.1-2.8-7.2c0-6.7,5.3-10.1,16-10.5l5.6-0.2v-2c0-2.6-0.6-4.5-1.7-5.7c-1.1-1.2-2.9-1.8-5.3-1.8
			c-2.7,0-5.9,0.8-9.3,2.5l-1.5-3.8c1.6-0.9,3.4-1.6,5.3-2.1c1.9-0.5,3.9-0.8,5.8-0.8c3.9,0,6.8,0.9,8.7,2.6
			c1.9,1.7,2.8,4.5,2.8,8.4v22.5H457.2z M446,114c3.1,0,5.5-0.9,7.3-2.6c1.8-1.7,2.7-4.1,2.7-7.2v-3l-5,0.2c-4,0.1-6.8,0.8-8.6,1.9
			c-1.8,1.1-2.6,2.8-2.6,5.1c0,1.8,0.5,3.2,1.6,4.1C442.5,113.5,444,114,446,114z"/>
		<path fill="#F9F9F9" d="M463.8,84.5h5.3l7.2,18.8c1.6,4.3,2.6,7.4,2.9,9.3h0.2c0.3-1,0.8-2.8,1.6-5.2c0.8-2.5,3.6-10.1,8.2-22.8
			h5.4l-14.2,37.5c-1.4,3.7-3,6.3-4.9,7.9c-1.9,1.6-4.2,2.3-6.9,2.3c-1.5,0-3-0.2-4.5-0.5v-4c1.1,0.2,2.3,0.4,3.7,0.4
			c3.4,0,5.9-1.9,7.3-5.8l1.8-4.7L463.8,84.5z"/>
	</g>
	<g>
		<path fill="#F9F9F9" d="M310.9,87.6c1.6,1.3,4.9,4.1,4.9,9.3c0,5.1-2.9,7.5-5.8,9.8c-0.9,0.9-1.9,1.9-1.9,3.4c0,1.5,1,2.3,1.8,3
			l2.5,1.9c3,2.6,5.8,4.9,5.8,9.7c0,6.5-6.3,13-18.1,13c-10,0-14.8-4.8-14.8-9.9c0-2.5,1.2-6,5.3-8.4c4.3-2.6,10.1-3,13.2-3.2
			c-1-1.2-2.1-2.5-2.1-4.7c0-1.2,0.3-1.9,0.7-2.7c-0.8,0.1-1.5,0.1-2.2,0.1c-7.3,0-11.4-5.4-11.4-10.8c0-3.2,1.4-6.7,4.4-9.2
			c3.9-3.2,8.6-3.8,12.3-3.8h14.2l-4.4,2.5H310.9z M306,118.2c-0.6-0.1-0.9-0.1-1.6-0.1c-0.6,0-4.3,0.1-7.2,1.1
			c-1.5,0.5-5.9,2.2-5.9,7.1c0,4.9,4.8,8.4,12.1,8.4c6.6,0,10.1-3.2,10.1-7.4C313.5,123.8,311.2,121.9,306,118.2z M308,105.1
			c1.6-1.6,1.7-3.8,1.7-5c0-5-3-12.7-8.7-12.7c-1.8,0-3.7,0.9-4.8,2.3c-1.2,1.4-1.5,3.3-1.5,5.1c0,4.6,2.7,12.3,8.6,12.3
			C305,107,306.9,106.2,308,105.1z"/>
		<path fill="#F9F9F9" d="M267.5,117.1c-10.9,0-16.8-8.5-16.8-16.2c0-9,7.4-16.7,17.8-16.7c10.1,0,16.4,7.9,16.4,16.2
			C285,108.5,278.7,117.1,267.5,117.1z M276.1,111.5c1.7-2.2,2.1-5,2.1-7.6c0-6.1-2.9-17.6-11.4-17.6c-2.3,0-4.5,0.9-6.2,2.3
			c-2.7,2.4-3.2,5.4-3.2,8.4c0,6.8,3.4,18,11.7,18C271.7,115,274.5,113.7,276.1,111.5z"/>
		<path fill="#F9F9F9" d="M230.2,117.1c-10.9,0-16.8-8.5-16.8-16.2c0-9,7.4-16.7,17.8-16.7c10.1,0,16.4,7.9,16.4,16.2
			C247.7,108.5,241.4,117.1,230.2,117.1z M238.8,111.5c1.7-2.2,2.1-5,2.1-7.6c0-6.1-2.9-17.6-11.4-17.6c-2.3,0-4.5,0.9-6.2,2.3
			c-2.7,2.4-3.2,5.4-3.2,8.4c0,6.8,3.4,18,11.7,18C234.5,115,237.2,113.7,238.8,111.5z"/>
		<path fill="#F9F9F9" d="M208.1,116l-9.9,2.3c-4,0.6-7.6,1.2-11.4,1.2c-19.1,0-26.4-14-26.4-25c0-13.4,10.3-25.9,27.9-25.9
			c3.7,0,7.3,0.6,10.6,1.5c5.2,1.5,7.6,3.2,9.1,4.3l-5.7,5.5l-2.4,0.6l1.7-2.8c-2.4-2.3-6.6-6.5-14.8-6.5
			c-10.9,0-19.2,8.3-19.2,20.4c0,13,9.4,25.2,24.5,25.2c4.4,0,6.7-0.9,8.8-1.7v-11.1l-10.4,0.6l5.5-3h14.7l-1.8,1.7
			c-0.5,0.4-0.6,0.6-0.7,1.1c-0.1,0.6-0.1,2.6-0.1,3.3V116z"/>
		<path fill="#F9F9F9" d="M332.7,114c-2.3-0.2-2.8-0.6-2.8-3.3v-0.8V71.5c0-0.1,0-0.3,0-0.4c0.3-2.4,1-2.8,3.1-4.1h-9.9l-5.2,2.5
			h5.3v0l0,0v40.4v2.3c0,1.4-0.3,1.6-1.9,3.7h12.2l2.6-1.5C335.1,114.2,333.9,114.2,332.7,114z"/>
		<path fill="#F9F9F9" d="M360.9,114.7c-0.8,0.4-1.5,0.9-2.3,1.2c-2.3,1-4.6,1.3-6.7,1.3c-2.2,0-5.6-0.1-9.1-2.7
			c-4.9-3.4-7-9.3-7-14.5c0-10.6,8.7-15.9,15.7-15.9c2.5,0,5,0.6,7.1,1.9c3.4,2.3,4.3,5.2,4.8,6.8l-16.1,6.5l-5.3,0.4
			c1.7,8.7,7.6,13.8,14.2,13.8c3.5,0,6-1.2,8.4-2.4L360.9,114.7z M354.4,94.2c1.3-0.5,2-0.9,2-1.9c0-2.7-3.1-5.9-6.8-5.9
			c-2.8,0-7.9,2.1-7.9,9.5c0,1.2,0.1,2.4,0.2,3.6L354.4,94.2z"/>
		<g>
			<path fill="#F9F9F9" d="M367.5,84.6v4.5H367v-4.5h-1.5v-0.5h3.5v0.5H367.5z"/>
			<path fill="#F9F9F9" d="M373.7,89.2v-4.6h0l-1.4,4.6h-0.4l-1.4-4.6h0v4.6h-0.5v-5h0.9l1.3,4h0l1.3-4h0.9v5H373.7z"/>
		</g>
	</g>
	<g>
		<path fill="#F9F9FA" d="M174.2,55.1h-3.4c0-0.5-0.3-1.8-1-4h-5c-0.7,2.2-1,3.5-1,4h-3.2c0-0.3,0.8-2.6,2.5-6.9
			c1.7-4.3,2.5-6.7,2.5-7.1h4.1c0,0.4,0.8,2.7,2.3,7C173.5,52.4,174.2,54.7,174.2,55.1z M169.3,49c-1.2-3.7-1.8-5.7-1.8-6h-0.2
			c0,0.3-0.6,2.3-1.9,6H169.3z"/>
		<path fill="#F9F9FA" d="M188.1,55.1h-2.7c0-0.3-1-1.8-3-4.7c-2.1-3-3.2-5-3.5-6.1h-0.2c0.2,1.6,0.3,3,0.3,4.3c0,1.8,0,3.9,0.2,6.5
			h-2.6c0.1-2.2,0.2-4.7,0.2-7.3c0-2.6-0.1-4.8-0.2-6.7h3.2c0,0.4,0.9,1.9,2.7,4.5c1.9,2.8,3,4.7,3.2,5.7h0.2
			c-0.2-1.6-0.3-3-0.3-4.3c0-1.9-0.1-3.9-0.2-6h2.7c-0.1,1.8-0.2,4-0.2,6.7C187.9,50.5,188,52.9,188.1,55.1z"/>
		<path fill="#F9F9FA" d="M203.6,47.6c0,2-0.7,3.8-2,5.3c-1.3,1.5-3.1,2.3-5.5,2.3c-1.1,0-2.5,0-4.4-0.1c0.1-2.2,0.1-4.6,0.1-7.3
			c0-2.6,0-4.8-0.1-6.7h1.9c0.3,0,0.8,0,1.4,0c0.6,0,1,0,1.2,0c2.6,0,4.5,0.6,5.6,1.9C203.1,44.3,203.6,45.8,203.6,47.6z
			 M200.7,48.1c0-1.4-0.4-2.5-1.2-3.5c-0.8-0.9-2-1.4-3.7-1.4c-0.3,0-0.7,0-1.3,0.1c0.1,1.4,0.1,2.9,0.1,4.5c0,1.7,0,3.4,0.1,5.1
			c0.5,0.1,0.9,0.1,1.4,0.1c1.5,0,2.7-0.5,3.4-1.4C200.3,50.6,200.7,49.4,200.7,48.1z"/>
		<path fill="#F9F9FA" d="M218,55.1h-3.2c-0.8-2.5-1.5-4.1-1.9-4.7c-0.4-0.6-1.2-0.9-2.1-0.9c-0.4,0-0.8,0-1.2,0
			c0,1.8,0,3.7,0.1,5.6h-3c0.1-2.2,0.1-4.6,0.1-7.3c0-2.6,0-4.8-0.1-6.7h1.9c0.2,0,0.7,0,1.3,0c0.7,0,1.3,0,1.9,0
			c3.3,0,4.9,1.1,4.9,3.4c0,1.8-0.9,3-2.8,3.7v0.2c0.7,0.2,1.4,0.8,1.9,1.7C216.3,50.9,217.1,52.6,218,55.1z M214,45.2
			c0-1.4-0.9-2.1-2.8-2.1c-0.7,0-1.3,0-1.8,0.2c0.1,1.1,0.1,2.6,0.1,4.3c0.4,0,0.7,0,1,0C212.8,47.6,214,46.8,214,45.2z"/>
		<path fill="#F9F9FA" d="M233.4,47.8c0,2.2-0.7,4-2,5.5c-1.3,1.4-3,2.2-5,2.2c-1.9,0-3.5-0.7-4.7-2c-1.3-1.3-1.9-3-1.9-5.1
			c0-2.2,0.7-4,2-5.5c1.3-1.4,3-2.2,5-2.2c1.9,0,3.5,0.7,4.7,2C232.8,44.1,233.4,45.8,233.4,47.8z M230.4,48.1
			c0-1.5-0.4-2.7-1.1-3.6c-0.8-0.9-1.7-1.4-2.8-1.4c-1,0-1.9,0.5-2.7,1.4c-0.7,0.9-1.1,2.1-1.1,3.6c0,1.5,0.4,2.7,1.2,3.6
			c0.8,0.9,1.7,1.4,2.8,1.4c1,0,1.9-0.5,2.7-1.4C230.1,50.8,230.4,49.6,230.4,48.1z"/>
		<path fill="#F9F9FA" d="M239.5,55.1h-3c0.1-2.2,0.1-4.7,0.1-7.3c0-2.6,0-4.8-0.1-6.7h3c-0.1,1.8-0.1,4-0.1,6.7
			C239.3,50.5,239.4,52.9,239.5,55.1z"/>
		<path fill="#F9F9FA" d="M255,47.6c0,2-0.7,3.8-2,5.3c-1.3,1.5-3.1,2.3-5.5,2.3c-1.1,0-2.5,0-4.4-0.1c0.1-2.2,0.1-4.6,0.1-7.3
			c0-2.6,0-4.8-0.1-6.7h1.9c0.3,0,0.8,0,1.4,0c0.6,0,1,0,1.2,0c2.6,0,4.5,0.6,5.6,1.9C254.5,44.3,255,45.8,255,47.6z M252.1,48.1
			c0-1.4-0.4-2.5-1.2-3.5c-0.8-0.9-2-1.4-3.7-1.4c-0.3,0-0.7,0-1.3,0.1c0.1,1.4,0.1,2.9,0.1,4.5c0,1.7,0,3.4,0.1,5.1
			c0.5,0.1,0.9,0.1,1.4,0.1c1.5,0,2.7-0.5,3.4-1.4C251.7,50.6,252.1,49.4,252.1,48.1z"/>
		<path fill="#F9F9FA" d="M275.7,55.1h-3.4c0-0.5-0.3-1.8-1-4h-5c-0.7,2.2-1,3.5-1,4h-3.2c0-0.3,0.8-2.6,2.5-6.9
			c1.7-4.3,2.5-6.7,2.5-7.1h4.1c0,0.4,0.8,2.7,2.3,7C274.9,52.4,275.7,54.7,275.7,55.1z M270.7,49c-1.2-3.7-1.8-5.7-1.8-6h-0.2
			c0,0.3-0.6,2.3-1.9,6H270.7z"/>
		<path fill="#F9F9FA" d="M288.2,44.8c0,1.7-0.6,3-1.9,3.8c-1.3,0.8-2.8,1.2-4.7,1.2c-0.3,0-0.6,0-0.7,0c0,1.3,0,3.1,0.1,5.3h-3
			c0.1-2.1,0.1-4.5,0.1-7.3c0-2.6,0-4.8-0.1-6.7h1.9c0.3,0,0.8,0,1.5,0c0.8,0,1.4,0,2,0c1.4,0,2.5,0.3,3.4,0.9
			C287.8,42.6,288.2,43.5,288.2,44.8z M285.4,45.4c0-1.5-1-2.3-3.1-2.3c-0.5,0-1,0.1-1.6,0.2c0.1,1.4,0.1,2.9,0.1,4.6
			c0.2,0,0.4,0,0.6,0C284.1,47.8,285.4,47,285.4,45.4z"/>
		<path fill="#F9F9FA" d="M301.1,44.8c0,1.7-0.6,3-1.9,3.8c-1.3,0.8-2.8,1.2-4.7,1.2c-0.3,0-0.6,0-0.7,0c0,1.3,0,3.1,0.1,5.3h-3
			c0.1-2.1,0.1-4.5,0.1-7.3c0-2.6,0-4.8-0.1-6.7h1.9c0.3,0,0.8,0,1.5,0c0.8,0,1.4,0,2,0c1.4,0,2.5,0.3,3.4,0.9
			C300.6,42.6,301.1,43.5,301.1,44.8z M298.3,45.4c0-1.5-1-2.3-3.1-2.3c-0.5,0-1,0.1-1.6,0.2c0.1,1.4,0.1,2.9,0.1,4.6
			c0.2,0,0.4,0,0.6,0C297,47.8,298.3,47,298.3,45.4z"/>
		<path fill="#F9F9FA" d="M322.2,47.8c0,2.2-0.7,4-2,5.5c-1.3,1.4-3,2.2-5,2.2c-1.9,0-3.5-0.7-4.7-2c-1.3-1.3-1.9-3-1.9-5.1
			c0-2.2,0.7-4,2-5.5c1.3-1.4,3-2.2,5-2.2c1.9,0,3.5,0.7,4.7,2C321.5,44.1,322.2,45.8,322.2,47.8z M319.2,48.1
			c0-1.5-0.4-2.7-1.1-3.6c-0.8-0.9-1.7-1.4-2.8-1.4c-1,0-1.9,0.5-2.7,1.4c-0.7,0.9-1.1,2.1-1.1,3.6c0,1.5,0.4,2.7,1.2,3.6
			c0.8,0.9,1.7,1.4,2.8,1.4c1,0,1.9-0.5,2.7-1.4C318.8,50.8,319.2,49.6,319.2,48.1z"/>
		<path fill="#F9F9FA" d="M336.7,55.1h-2.7c0-0.3-1-1.8-3-4.7c-2.1-3-3.2-5-3.5-6.1h-0.2c0.2,1.6,0.3,3,0.3,4.3c0,1.8,0,3.9,0.2,6.5
			h-2.6c0.1-2.2,0.2-4.7,0.2-7.3c0-2.6-0.1-4.8-0.2-6.7h3.2c0,0.4,0.9,1.9,2.7,4.5c1.9,2.8,3,4.7,3.2,5.7h0.2
			c-0.2-1.6-0.3-3-0.3-4.3c0-1.9,0-3.9-0.2-6h2.7c-0.1,1.8-0.2,4-0.2,6.7C336.6,50.5,336.6,52.9,336.7,55.1z"/>
	</g>
</g>
</svg>
