<?xml version="1.0" encoding="utf-8"?>
<!-- Generator: Adobe Illustrator 19.0.1, SVG Export Plug-In . SVG Version: 6.00 Build 0)  -->
<svg version="1.1" id="Capa_1" xmlns="http://www.w3.org/2000/svg" xmlns:xlink="http://www.w3.org/1999/xlink" x="0px" y="0px"
	 viewBox="-443 227 612 346" enable-background="new -443 227 612 346" xml:space="preserve">
<g>
	<g>
		<path fill="#875EA7" d="M161.3,289.7c4.3,0,7.7-3.6,7.7-7.7v-40.2c0-4.3-3.3-7.7-7.7-7.7h-596.5c-4.3,0-7.7,3.6-7.7,7.7V282
			c0,4.3,3.3,7.7,7.7,7.7L161.3,289.7L161.3,289.7z"/>
		<path fill="#875EA7" d="M-443,421.1c0,4.3,3.3,7.7,7.7,7.7h596.5c4.3,0,7.7-3.6,7.7-7.7v-40.2c0-4.3-3.3-7.7-7.7-7.7h-596.5
			c-4.3,0-7.7,3.6-7.7,7.7V421.1z"/>
		<path fill="#875EA7" d="M-443,560.2c0,4.3,3.3,7.7,7.7,7.7h596.5c4.3,0,7.7-3.6,7.7-7.7V520c0-4.3-3.3-7.7-7.7-7.7h-596.5
			c-4.3,0-7.7,3.6-7.7,7.7V560.2z"/>
	</g>
</g>
</svg>
