<?xml version="1.0" encoding="utf-8"?>
<!-- Generator: Adobe Illustrator 19.0.1, SVG Export Plug-In . SVG Version: 6.00 Build 0)  -->
<svg version="1.1" id="Layer_1" xmlns="http://www.w3.org/2000/svg" xmlns:xlink="http://www.w3.org/1999/xlink" x="0px" y="0px"
	 viewBox="-99 101 300 300" enable-background="new -99 101 300 300" xml:space="preserve">
<g>
	<path fill="#FFFFFF" d="M125.3,379.9h-190v-190H-3c3.7,0,6.8-3,6.8-6.8v-61.1h121.5v29.2c0.3,0,0.6-0.1,0.9-0.1
		c1.8-0.1,5.2,0,9.7,1.2c0.9,0.2,1.9,0.6,3,0.9v-38.1c0-3.7-3-6.8-6.8-6.8H-3.6c-1.8,0-3.5,0.7-4.8,2l-67.9,67.9c-1.3,1.3-2,3-2,4.8
		v203.6c0,3.7,3,6.8,6.8,6.8h203.6c3.7,0,6.8-3,6.8-6.8V281.5c-3.7,3.6-8.6,5.6-13.6,5.8L125.3,379.9L125.3,379.9z"/>
	<path fill="#FFFFFF" d="M176,154.7c-4.3-4.3-7.8-4.3-8.1-4.3c-0.5,0-1,0.2-1.4,0.6L151,166.4c2.2,1.4,4.7,3.3,7.3,5.9
		c2.6,2.6,4.5,5.1,5.9,7.3l15.4-15.4c0.4-0.4,0.6-0.9,0.6-1.4C180.3,162.4,180.3,159,176,154.7z"/>
	<path fill="#FFFFFF" d="M163.1,219l-7.5,7.5l-5-5l13.3-13.3c1.1-1.1,1.8-2.7,1.9-4.3c0-1.2,0.1-12.1-13.4-25.6
		c-13.5-13.5-24.4-13.5-25.6-13.4c-1.6,0.1-3.2,0.8-4.3,1.9L7.4,281.8c-0.7,0.7-1.3,1.6-1.6,2.5l-16.1,48.4
		c-0.8,2.3-0.2,4.9,1.6,6.7c1.7,1.7,4.3,2.3,6.7,1.6l48.4-16.1c1-0.3,1.8-0.9,2.5-1.6l97-97l5,5l-31,31c-2.6,2.7-2.6,6.9,0,9.6
		c1.3,1.3,3.1,2,4.8,2c1.7,0,3.5-0.7,4.8-2l43.3-43.3c2.6-2.6,2.6-6.9,0-9.6C170,216.3,165.7,216.3,163.1,219z"/>
</g>
</svg>
