<?xml version="1.0" encoding="utf-8"?>
<!-- Generator: Adobe Illustrator 19.0.1, SVG Export Plug-In . SVG Version: 6.00 Build 0)  -->
<svg version="1.1" id="Layer_1" xmlns="http://www.w3.org/2000/svg" xmlns:xlink="http://www.w3.org/1999/xlink" x="0px" y="0px"
	 viewBox="0 0 268 89.7" enable-background="new 0 0 268 89.7" xml:space="preserve">
<g>
	<path fill="#875EA7" d="M1.2,27.2h8.9v5.6C11,31.4,14.8,26,21.8,26c2.7,0,5.7,1,7.9,2.1l-4.2,8.1c-2-1.4-3.8-1.7-5.2-1.7
		c-3.6,0-5.8,1.5-7.2,3.2c-1.5,2-3,5.5-3,13.9v27.2H1.2V27.2z"/>
	<path fill="#875EA7" d="M126.2,27.2L141.6,62l15.4-34.8h9.9l-25.3,54.9l-25.3-54.9H126.2z"/>
	<path fill="#875EA7" d="M190.1,1.4c3.5,0,6.3,2.9,6.3,6.3c0,3.5-2.9,6.3-6.3,6.3c-3.5,0-6.3-2.9-6.3-6.3
		C183.8,4.2,186.6,1.4,190.1,1.4z M194.6,27.2v51.5h-8.9V27.2H194.6z"/>
	<path fill="#875EA7" d="M266.4,65.6c-1.5,2.9-3.7,6-6.3,8.3c-4.7,4.2-10.5,6.3-17.1,6.3c-12.4,0-25.4-7.8-25.4-26.9
		c0-15.4,9.4-27.3,24.9-27.3c10.1,0,16.4,5,19.5,9.4c3.2,4.6,5.1,12.5,4.8,19.4h-40.1c0.1,10.7,7.4,17.5,16.4,17.5
		c4.2,0,7.6-1.2,10.5-3.7c2.4-2,4.2-4.6,5.3-7.1L266.4,65.6z M257.6,47.3c-1.5-8.1-7.6-13.4-15.1-13.4c-7.6,0-13.8,5.7-15.1,13.4
		H257.6z"/>
</g>
<g>
	<g>
		<g>
			<polygon fill="#875EA7" points="87.3,35.4 87.4,35.9 86.6,36.1 86.5,37.1 87.4,37.1 88.6,37 89.2,36.3 88.6,36 88.2,35.6 
				87.7,34.7 87.4,33.5 86.4,33.7 86.1,34.2 86.1,34.6 86.6,35 			"/>
			<polygon fill="#875EA7" points="86.4,35.8 86.5,35.2 85.9,34.9 85.1,35.1 84.5,36.1 84.5,36.7 85.2,36.7 			"/>
			<path fill="#875EA7" d="M69.4,38.6l-0.2,0.5h-0.9v0.5h0.2c0,0,0,0.1,0,0.2l0.5,0l0.3-0.2l0.1-0.4l0.4,0l0.2-0.4l-0.4-0.1
				L69.4,38.6z"/>
			<polygon fill="#875EA7" points="67.1,39.5 67.1,39.9 67.7,39.9 67.8,39.4 67.4,39.1 			"/>
			<path fill="#875EA7" d="M105.5,53.7c0-1-0.1-2-0.2-2.9c-0.3-3.2-1.1-6.3-2.2-9.1c-0.1-0.2-0.2-0.4-0.3-0.6
				c-1.5-3.6-3.7-6.9-6.3-9.7c-0.2-0.2-0.3-0.4-0.5-0.5c-0.5-0.5-1-1-1.5-1.5c-6-5.4-13.9-8.7-22.6-8.7c-8.8,0-16.7,3.4-22.7,8.9
				c-1.4,1.3-2.7,2.7-3.8,4.2c-4.4,5.7-7,12.8-7,20.5c0,18.5,15,33.5,33.5,33.5c13,0,24.3-7.4,29.9-18.3c1.2-2.3,2.1-4.8,2.7-7.4
				c0.2-0.7,0.3-1.3,0.4-2c0.3-1.9,0.5-3.9,0.5-5.9C105.5,53.9,105.5,53.8,105.5,53.7z M99.2,40.3l0.2-0.2c0.3,0.5,0.5,1,0.7,1.5
				l-0.3,0l-0.6,0.1V40.3z M94.3,34.4l0-1.5c0.5,0.6,1,1.1,1.5,1.7l-0.6,0.9l-2.1,0L93,35.1L94.3,34.4z M53.9,30.7L53.9,30.7
				l0.7-0.1l0.1-0.2h1.1v0.5l-0.3,0.4h-1.5L53.9,30.7L53.9,30.7z M55,32.2c0,0,0.7-0.1,0.7-0.1s0,0.7,0,0.7l-1.5,0.1l-0.3-0.3
				L55,32.2z M101.3,45.5h-2.5l-1.5-1.1l-1.6,0.2v1h-0.5l-0.5-0.4L92,44.4v-1.8l-3.5,0.3l-1.1,0.6h-1.4l-0.7-0.1l-1.7,0.9v1.7
				l-3.4,2.5l0.3,1h0.7l-0.2,1l-0.5,0.2l0,2.6l2.9,3.3h1.3l0.1-0.2h2.3l0.7-0.6h1.3l0.7,0.7l1.9,0.2l-0.3,2.6l2.2,3.8l-1.1,2.2
				l0.1,1l0.9,0.9v2.5l1.2,1.6v2h1C90.2,80.3,81.6,84.8,72,84.8C55,84.8,41.2,71,41.2,54c0-4.3,0.9-8.3,2.5-12v-1l1.1-1.3
				c0.4-0.7,0.8-1.4,1.2-2.1l0,0.6l-1.3,1.6c-0.4,0.7-0.8,1.5-1.1,2.3v1.8l1.3,0.6v2.4l1.2,2.1l1,0.2l0.1-0.7l-1.2-1.8l-0.2-1.8h0.7
				l0.3,1.8l1.7,2.5l-0.4,0.8l1.1,1.7l2.7,0.7v-0.4l1.1,0.2l-0.1,0.8l0.8,0.2l1.3,0.4l1.8,2.1l2.4,0.2l0.2,1.9l-1.6,1.1l-0.1,1.7
				l-0.2,1l2.3,2.9l0.2,1c0,0,0.8,0.2,0.9,0.2c0.1,0,1.9,1.4,1.9,1.4V72l0.6,0.2l-0.4,2.4l1.1,1.4l-0.2,2.4l1.4,2.5l1.8,1.6l1.8,0
				l0.2-0.6l-1.3-1.1l0.1-0.6l0.2-0.7l0.1-0.7l-0.9,0l-0.5-0.6l0.8-0.7l0.1-0.5l-0.8-0.2l0-0.5l1.2-0.2l1.8-0.9l0.6-1.1l1.9-2.5
				L72,69.7l0.6-1l1.8,0.1l1.2-0.9l0.4-3.7l1.3-1.7l0.2-1.1l-1.2-0.4l-0.8-1.3l-2.7,0l-2.1-0.8l-0.1-1.5L69.8,56l-1.9,0l-1.1-1.8
				l-1-0.5l-0.1,0.5l-1.8,0.1l-0.7-0.9l-1.9-0.4l-1.6,1.8l-2.5-0.4l-0.2-2.8l-1.8-0.3l0.7-1.4l-0.2-0.8l-2.4,1.6L52,50.6l-0.5-1.2
				l0.3-1.2l0.8-1.5l1.9-1l3.6,0l0,1.1l1.3,0.6l-0.1-1.9l0.9-0.9l1.9-1.2l0.1-0.9l1.9-2l2-1.1L66,39.3l1.4-1.3l0.5,0.1l0.2,0.3
				l0.5-0.6l0.1-0.1l-0.6-0.1l-0.6-0.2V37l0.3-0.2h0.7l0.3,0.1l0.3,0.5l0.3,0v0l0.1,0l0.9-0.1l0.1-0.5l0.5,0.1v0.5l-0.5,0.3h0
				l0.1,0.5l1.7,0.5c0,0,0,0,0,0l0.4,0l0-0.7l-1.4-0.6l-0.1-0.4l1.1-0.4l0-1.1l-1.2-0.7l-0.1-1.8l-1.6,0.8h-0.6l0.2-1.4L67.2,32
				l-0.9,0.7v2.1l-1.6,0.5L64,36.7l-0.7,0.1V35l-1.5-0.2L61,34.3l-0.3-1.1l2.7-1.6l1.3-0.4l0.1,0.9l0.7,0l0.1-0.5l0.8-0.1l0-0.2
				l-0.3-0.1l-0.1-0.5l1-0.1l0.6-0.6l0,0l0,0l0.2-0.2l2-0.3l0.9,0.8l-2.3,1.2l3,0.7l0.4-1h1.3l0.5-0.9l-0.9-0.2v-1.1l-2.9-1.3
				l-2,0.2l-1.1,0.6l0.1,1.4l-1.2-0.2l-0.2-0.8l1.1-1l-2-0.1l-0.6,0.2l-0.3,0.7l0.8,0.1l-0.2,0.8l-1.3,0.1l-0.2,0.5l-1.9,0.1
				c0,0-0.1-1.1-0.1-1.1s1.5,0,1.5,0l1.1-1.1l-0.6-0.3l-0.8,0.8l-1.4-0.1l-0.8-1.1h-1.7l-1.8,1.4h1.7l0.2,0.5l-0.4,0.4l1.8,0.1
				l0.3,0.7l-2.1-0.1l-0.1-0.5l-1.3-0.3l-0.7-0.4l-1.6,0c5.1-3.7,11.3-5.9,18.1-5.9c7.8,0,14.9,2.9,20.3,7.7l-0.4,0.7l-1.4,0.6
				l-0.6,0.6l0.1,0.8l0.7,0.1l0.4,1.1l1.3-0.5l0.2,1.5h-0.4l-1-0.2l-1.2,0.2L89,37.3l-1.6,0.2l-0.2,1.4l0.7,0.2L87.7,40l-1.6-0.3
				L84.6,40l-0.3,0.8l0.3,1.7l0.9,0.4l1.4,0l1-0.1l0.3-0.8l1.5-2l1,0.2l1-0.9l0.2,0.7l2.4,1.6l-0.3,0.4L92.8,42l0.4,0.6l0.7,0.1
				l0.8-0.3l0-0.9l0.3-0.2L94.7,41l-1.6-0.9L92.7,39H94l0.4,0.4l1.1,1l0,1.2l1.2,1.3l0.4-1.7l0.8-0.4l0.2,1.4l0.8,0.9l1.6,0
				c0.3,0.8,0.6,1.6,0.8,2.4L101.3,45.5z M56.7,35.7l0.8-0.4l0.7,0.2l-0.3,1l-0.8,0.2L56.7,35.7z M61,38v0.6h-1.8l-0.7-0.2l0.2-0.4
				l0.9-0.4h1.2V38H61z M61.8,38.9v0.6l-0.5,0.3l-0.6,0.1c0,0,0-0.9,0-1H61.8z M61.3,38.7v-0.7l0.6,0.6L61.3,38.7z M61.6,40.1v0.6
				l-0.4,0.4h-1l0.2-0.7l0.5,0l0.1-0.2L61.6,40.1z M59.2,38.9h1l-1.3,1.8l-0.5-0.3l0.1-0.8L59.2,38.9z M63.3,39.9v0.6h-1l-0.3-0.4
				v-0.6h0.1L63.3,39.9z M62.4,39.1l0.3-0.3l0.5,0.3l-0.4,0.3L62.4,39.1z M101.8,47.1l0.1-0.1c0,0.2,0.1,0.3,0.1,0.5L101.8,47.1z"/>
			<path fill="#875EA7" d="M43.7,41v1c0.3-0.8,0.7-1.5,1.1-2.3L43.7,41z"/>
		</g>
	</g>
</g>
</svg>
