<?xml version="1.0" encoding="utf-8"?>
<!-- Generator: Adobe Illustrator 19.0.1, SVG Export Plug-In . SVG Version: 6.00 Build 0)  -->
<svg version="1.1" xmlns="http://www.w3.org/2000/svg" xmlns:xlink="http://www.w3.org/1999/xlink" x="0px" y="0px"
	 viewBox="0 0 926 1845" enable-background="new 0 0 926 1845" xml:space="preserve">
<g id="rovie-iphone-mockup_1_">
	<g id="space_gray_xA0_Image_1_">
		
			<image overflow="visible" width="870" height="1775" id="space_gray_xA0_Image" xlink:href="1D45BE79A8421E3A.png"  transform="matrix(1 0 0 1 26 33)">
		</image>
	</g>
	<g id="Rectangle_1_xA0_Image_1_">
		
			<image overflow="visible" width="756" height="1344" id="Rectangle_1_xA0_Image" xlink:href="1D45BE79A8421E3E.png"  transform="matrix(1 0 0 1 82 247)">
		</image>
	</g>
	<g id="rovie-main-logo-white_xA0_Image_1_">
		<g>
			<path fill="#FFFFFF" d="M224,834.9h15.9v9.9c1.5-2.4,8.4-12.1,20.8-12.1c4.9,0,10.2,1.8,14.1,3.8l-7.5,14.4
				c-3.5-2.4-6.8-3.1-9.3-3.1c-6.4,0-10.4,2.6-12.8,5.7c-2.6,3.5-5.3,9.7-5.3,24.7v48.4H224V834.9z"/>
			<path fill="#FFFFFF" d="M446.3,834.9l27.4,61.8l27.4-61.8h17.7l-45,97.6l-45-97.6H446.3z"/>
			<path fill="#FFFFFF" d="M560,789c6.2,0,11.3,5.1,11.3,11.3c0,6.2-5.1,11.3-11.3,11.3s-11.3-5.1-11.3-11.3
				C548.8,794.1,553.9,789,560,789z M568,834.9v91.6h-15.9v-91.6H568z"/>
			<path fill="#FFFFFF" d="M695.8,903.1c-2.6,5.1-6.6,10.6-11.3,14.8c-8.4,7.5-18.8,11.3-30.5,11.3c-22.1,0-45.3-13.9-45.3-47.9
				c0-27.4,16.8-48.6,44.4-48.6c17.9,0,29.1,8.8,34.7,16.8c5.7,8.2,9.1,22.3,8.6,34.4h-71.3c0.2,19,13.2,31.1,29.1,31.1
				c7.5,0,13.5-2.2,18.8-6.6c4.2-3.5,7.5-8.2,9.5-12.6L695.8,903.1z M680.1,870.7c-2.6-14.4-13.5-23.8-26.9-23.8
				s-24.5,10.2-26.9,23.8H680.1z"/>
		</g>
		<g>
			<g>
				<g>
					<polygon fill="#FFFFFF" points="377.2,849.5 377.3,850.4 376,850.7 375.8,852.6 377.4,852.6 379.5,852.4 380.6,851.1 
						379.4,850.6 378.8,849.9 377.9,848.3 377.4,846.1 375.6,846.5 375.1,847.3 375.1,848.1 376,848.7 					"/>
					<polygon fill="#FFFFFF" points="375.7,850.2 375.8,849.1 374.7,848.6 373.2,848.9 372.2,850.7 372.2,851.8 373.4,851.8 					
						"/>
					<path fill="#FFFFFF" d="M345.4,855.3l-0.3,0.8h-1.6v0.8h0.4c0,0,0,0.2,0.1,0.4l1-0.1l0.6-0.4l0.2-0.8l0.8-0.1l0.3-0.6l-0.7-0.1
						L345.4,855.3z"/>
					<polygon fill="#FFFFFF" points="341.3,856.7 341.3,857.5 342.4,857.4 342.5,856.6 341.8,856.1 					"/>
					<path fill="#FFFFFF" d="M409.6,882c0-1.7-0.1-3.5-0.3-5.2c-0.6-5.7-1.9-11.1-3.9-16.2c-0.2-0.4-0.3-0.8-0.5-1.1
						c-2.7-6.4-6.5-12.2-11.2-17.3c-0.3-0.3-0.6-0.7-0.9-1c-0.9-0.9-1.8-1.8-2.7-2.7c-10.6-9.7-24.7-15.5-40.1-15.5
						c-15.6,0-29.7,6-40.4,15.8c-2.5,2.3-4.8,4.8-6.8,7.4c-7.8,10.1-12.4,22.7-12.4,36.4c0,32.9,26.8,59.6,59.6,59.6
						c23.1,0,43.2-13.2,53.1-32.5c2.1-4.1,3.8-8.5,4.9-13.1c0.3-1.2,0.5-2.3,0.7-3.5c0.6-3.4,0.9-6.9,0.9-10.4
						C409.6,882.4,409.6,882.2,409.6,882z M398.3,858.2l0.3-0.4c0.5,0.9,0.9,1.8,1.3,2.7l-0.6,0l-1.1,0.1V858.2z M389.7,847.8l0-2.7
						c0.9,1,1.8,2,2.7,3.1l-1.1,1.6l-3.8,0l-0.2-0.8L389.7,847.8z M317.8,841.1V841h1.2l0.1-0.4h2v0.9l-0.6,0.8h-2.7L317.8,841.1
						L317.8,841.1z M319.7,843.8c0,0,1.2-0.2,1.3-0.2c0.1,0,0,1.2,0,1.2l-2.7,0.2l-0.5-0.6L319.7,843.8z M402.1,867.5h-4.4l-2.7-2
						l-2.8,0.3v1.7h-0.9l-1-0.7l-4.8-1.2v-3.1l-6.1,0.5l-1.9,1h-2.4l-1.2-0.1l-3,1.6v3.1l-6.1,4.4l0.5,1.9h1.2l-0.3,1.8l-0.9,0.3
						l0,4.6l5.2,6h2.3l0.1-0.4h4.1l1.2-1.1h2.3l1.3,1.3l3.5,0.4l-0.5,4.6l3.8,6.8l-2,3.9l0.1,1.8l1.6,1.6v4.4l2.1,2.8v3.6h1.8
						c-10,12.3-25.3,20.2-42.5,20.2c-30.2,0-54.7-24.6-54.7-54.7c0-7.6,1.6-14.8,4.4-21.4v-1.7l2-2.4c0.7-1.3,1.4-2.5,2.2-3.8l0.1,1
						l-2.3,2.8c-0.7,1.3-1.4,2.7-2,4.1v3.1l2.3,1.1v4.3l2.2,3.7l1.8,0.3l0.2-1.3l-2.1-3.2l-0.4-3.1h1.2l0.5,3.2l3,4.4l-0.8,1.4
						l1.9,2.9l4.8,1.2v-0.8l1.9,0.3l-0.2,1.4l1.5,0.3l2.3,0.6l3.3,3.7l4.2,0.3l0.4,3.4l-2.9,2l-0.1,3l-0.4,1.9l4.1,5.2l0.3,1.8
						c0,0,1.5,0.4,1.7,0.4c0.2,0,3.4,2.4,3.4,2.4v9.4l1.1,0.3l-0.8,4.3l1.9,2.5l-0.4,4.3l2.5,4.4l3.2,2.8l3.3,0.1l0.3-1l-2.4-2
						l0.1-1l0.4-1.2l0.1-1.3l-1.6,0l-0.8-1l1.3-1.3l0.2-1l-1.5-0.4l0.1-0.9l2.1-0.3l3.3-1.6l1.1-2l3.4-4.4l-0.8-3.4l1-1.8l3.1,0.1
						l2.1-1.7l0.7-6.6l2.3-3l0.4-1.9l-2.1-0.7l-1.4-2.3l-4.8,0l-3.8-1.5l-0.2-2.7l-1.3-2.2l-3.5-0.1l-2-3.1l-1.8-0.9l-0.1,1
						l-3.2,0.2l-1.2-1.6l-3.4-0.7l-2.8,3.2l-4.4-0.7l-0.3-4.9l-3.2-0.5l1.3-2.4l-0.4-1.4l-4.2,2.8l-2.6-0.3l-0.9-2.1l0.6-2.1
						l1.5-2.7l3.3-1.7l6.5,0l0,2l2.3,1.1l-0.2-3.4l1.7-1.7l3.4-2.2l0.2-1.6l3.4-3.5l3.6-2l-0.3-0.3l2.4-2.3l0.9,0.2l0.4,0.5l0.9-1
						l0.2-0.1l-1-0.1l-1-0.3v-1l0.5-0.4h1.2l0.5,0.2l0.5,1l0.6-0.1V853l0.2,0.1l1.7-0.3l0.2-0.8l1,0.2v0.9l-0.9,0.6h0l0.1,1l3,0.9
						c0,0,0,0,0,0l0.7-0.1l0-1.3l-2.4-1.1l-0.1-0.6l2-0.7l0.1-1.9l-2.1-1.3l-0.1-3.2l-2.9,1.4h-1l0.3-2.5l-3.9-0.9l-1.6,1.2v3.7
						l-2.9,0.9l-1.2,2.4l-1.3,0.2v-3.1l-2.7-0.4l-1.4-0.9l-0.5-2l4.9-2.9l2.4-0.7l0.2,1.6l1.3-0.1l0.1-0.8l1.4-0.2l0-0.3l-0.6-0.2
						l-0.1-0.9l1.7-0.1l1-1.1l0.1-0.1l0,0l0.3-0.3l3.6-0.5l1.6,1.3l-4.2,2.2l5.3,1.3l0.7-1.8h2.3l0.8-1.5l-1.6-0.4v-2l-5.1-2.3
						l-3.5,0.4l-2,1l0.1,2.5l-2.1-0.3l-0.3-1.4l2-1.8l-3.6-0.2l-1,0.3l-0.5,1.2l1.4,0.2l-0.3,1.4l-2.3,0.1l-0.4,0.9l-3.4,0.1
						c0,0-0.1-1.9-0.2-1.9c-0.1,0,2.6,0,2.6,0l2-2l-1.1-0.5l-1.5,1.4l-2.4-0.1l-1.5-2h-3.1l-3.2,2.4h3l0.3,0.9l-0.8,0.7l3.3,0.1
						l0.5,1.2l-3.7-0.1l-0.2-0.9l-2.3-0.5l-1.2-0.7l-2.8,0c9-6.6,20.1-10.5,32.2-10.5c13.8,0,26.5,5.2,36.1,13.7l-0.7,1.2l-2.5,1
						l-1.1,1.2l0.2,1.3l1.3,0.2l0.8,2l2.2-0.9l0.4,2.6h-0.7l-1.8-0.3l-2,0.3l-2,2.8l-2.8,0.4l-0.4,2.4l1.2,0.3l-0.3,1.6l-2.8-0.6
						l-2.6,0.6l-0.5,1.4l0.4,3l1.5,0.7l2.5,0l1.7-0.2l0.5-1.4l2.7-3.5l1.8,0.4l1.7-1.6l0.3,1.2l4.3,2.9l-0.5,0.7l-1.9-0.1l0.7,1
						l1.2,0.3l1.4-0.6l0-1.7l0.6-0.3l-0.5-0.5l-2.9-1.6l-0.8-2.1h2.4l0.8,0.8l2,1.8l0.1,2.1l2.1,2.3l0.8-3.1l1.5-0.8l0.3,2.5
						l1.4,1.6l2.9,0c0.6,1.4,1,2.9,1.5,4.3L402.1,867.5z M322.8,850.1l1.4-0.7l1.3,0.3l-0.4,1.7l-1.4,0.4L322.8,850.1z M330.4,854.2
						v1.1h-3.3l-1.2-0.3l0.3-0.8l1.6-0.7h2.1v0.7H330.4z M331.9,855.7v1.1l-0.8,0.5l-1,0.2c0,0,0-1.6,0-1.8H331.9z M331,855.3V854
						l1.1,1L331,855.3z M331.5,857.9v1.1l-0.8,0.8H329l0.3-1.2l0.8-0.1l0.2-0.4L331.5,857.9z M327.2,855.7h1.8l-2.3,3.2l-1-0.5
						l0.2-1.4L327.2,855.7z M334.6,857.6v1.1h-1.7l-0.5-0.7v-1h0.1L334.6,857.6z M333,856.1l0.5-0.5l0.8,0.5l-0.7,0.6L333,856.1z
						 M403,870.2l0.2-0.2c0.1,0.3,0.1,0.6,0.2,0.9L403,870.2z"/>
					<path fill="#FFFFFF" d="M299.6,859.5v1.7c0.6-1.4,1.3-2.8,2-4.1L299.6,859.5z"/>
				</g>
			</g>
			<g>
			</g>
			<g>
			</g>
			<g>
			</g>
			<g>
			</g>
			<g>
			</g>
			<g>
			</g>
			<g>
			</g>
			<g>
			</g>
			<g>
			</g>
			<g>
			</g>
			<g>
			</g>
			<g>
			</g>
			<g>
			</g>
			<g>
			</g>
			<g>
			</g>
		</g>
	</g>
</g>
<g id="iPhone_6_x0D_mockup_by_senyars.com" opacity="0.502">
	<text transform="matrix(0.9999 0 0 1 1333.8149 2078.6519)"><tspan x="0" y="0" fill="#FFFFFF" font-family="'HelveticaNeueCyr-Roman'" font-size="100px">i</tspan><tspan x="23" y="0" fill="#FFFFFF" font-family="'HelveticaNeueCyr-Roman'" font-size="100px">P</tspan><tspan x="77" y="0" fill="#FFFFFF" font-family="'HelveticaNeueCyr-Roman'" font-size="100px">h</tspan><tspan x="128" y="0" fill="#FFFFFF" font-family="'HelveticaNeueCyr-Roman'" font-size="100px">o</tspan><tspan x="178" y="0" fill="#FFFFFF" font-family="'HelveticaNeueCyr-Roman'" font-size="100px">n</tspan><tspan x="229" y="0" fill="#FFFFFF" font-family="'HelveticaNeueCyr-Roman'" font-size="100px">e</tspan><tspan x="276" y="0" fill="#FFFFFF" font-family="'HelveticaNeueCyr-Roman'" font-size="100px"> </tspan><tspan x="304" y="0" fill="#FFFFFF" font-family="'HelveticaNeueCyr-Roman'" font-size="100px">6</tspan><tspan x="-305.5" y="100" fill="#FFFFFF" font-family="'HelveticaNeueCyr-Light'" font-size="100px">m</tspan><tspan x="-227.5" y="100" fill="#FFFFFF" font-family="'HelveticaNeueCyr-Light'" font-size="100px">o</tspan><tspan x="-177.5" y="100" fill="#FFFFFF" font-family="'HelveticaNeueCyr-Light'" font-size="100px">c</tspan><tspan x="-134.5" y="100" fill="#FFFFFF" font-family="'HelveticaNeueCyr-Light'" font-size="100px">k</tspan><tspan x="-86.5" y="100" fill="#FFFFFF" font-family="'HelveticaNeueCyr-Light'" font-size="100px">u</tspan><tspan x="-36.5" y="100" fill="#FFFFFF" font-family="'HelveticaNeueCyr-Light'" font-size="100px">p</tspan><tspan x="17.5" y="100" fill="#FFFFFF" font-family="'HelveticaNeueCyr-Light'" font-size="100px"> </tspan><tspan x="45.5" y="100" fill="#FFFFFF" font-family="'HelveticaNeueCyr-Light'" font-size="100px">b</tspan><tspan x="96.5" y="100" fill="#FFFFFF" font-family="'HelveticaNeueCyr-Light'" font-size="100px">y</tspan><tspan x="139.5" y="100" fill="#FFFFFF" font-family="'HelveticaNeueCyr-Light'" font-size="100px"> </tspan><tspan x="167.5" y="100" fill="#FFFFFF" font-family="'HelveticaNeueCyr-Light'" font-size="100px">s</tspan><tspan x="204.5" y="100" fill="#FFFFFF" font-family="'HelveticaNeueCyr-Light'" font-size="100px">e</tspan><tspan x="251.5" y="100" fill="#FFFFFF" font-family="'HelveticaNeueCyr-Light'" font-size="100px">n</tspan><tspan x="302.5" y="100" fill="#FFFFFF" font-family="'HelveticaNeueCyr-Light'" font-size="100px">y</tspan><tspan x="345.5" y="100" fill="#FFFFFF" font-family="'HelveticaNeueCyr-Light'" font-size="100px">a</tspan><tspan x="396.5" y="100" fill="#FFFFFF" font-family="'HelveticaNeueCyr-Light'" font-size="100px">r</tspan><tspan x="432.5" y="100" fill="#FFFFFF" font-family="'HelveticaNeueCyr-Light'" font-size="100px">s</tspan><tspan x="469.5" y="100" fill="#FFFFFF" font-family="'HelveticaNeueCyr-Light'" font-size="100px">.</tspan><tspan x="492.5" y="100" fill="#FFFFFF" font-family="'HelveticaNeueCyr-Light'" font-size="100px">c</tspan><tspan x="535.6" y="100" fill="#FFFFFF" font-family="'HelveticaNeueCyr-Light'" font-size="100px">o</tspan><tspan x="585.6" y="100" fill="#FFFFFF" font-family="'HelveticaNeueCyr-Light'" font-size="100px">m</tspan></text>
</g>
</svg>
